<?xml version="1.0" encoding="UTF-8" standalone="no"?>
<!-- Generator: Adobe Illustrator 16.0.0, SVG Export Plug-In . SVG Version: 6.00 Build 0)  -->

<svg
   xmlns:dc="http://purl.org/dc/elements/1.1/"
   xmlns:cc="http://creativecommons.org/ns#"
   xmlns:rdf="http://www.w3.org/1999/02/22-rdf-syntax-ns#"
   xmlns:svg="http://www.w3.org/2000/svg"
   xmlns="http://www.w3.org/2000/svg"
   xmlns:xlink="http://www.w3.org/1999/xlink"
   xmlns:sodipodi="http://sodipodi.sourceforge.net/DTD/sodipodi-0.dtd"
   xmlns:inkscape="http://www.inkscape.org/namespaces/inkscape"
   version="1.1"
   id="Layer_1"
   x="0px"
   y="0px"
   width="120"
   height="120"
   viewBox="35 15 120 120"
   enable-background="new 35 15 180 180"
   xml:space="preserve"
   inkscape:version="0.91 r13725"
   sodipodi:docname="duckduckgo.svg"><metadata
     id="metadata101"><rdf:RDF><cc:Work
         rdf:about=""><dc:format>image/svg+xml</dc:format><dc:type
           rdf:resource="http://purl.org/dc/dcmitype/StillImage" /><dc:title></dc:title></cc:Work></rdf:RDF></metadata><defs
     id="defs99" /><sodipodi:namedview
     pagecolor="#ffffff"
     bordercolor="#666666"
     borderopacity="1"
     objecttolerance="10"
     gridtolerance="10"
     guidetolerance="10"
     inkscape:pageopacity="0"
     inkscape:pageshadow="2"
     inkscape:window-width="1805"
     inkscape:window-height="821"
     id="namedview97"
     showgrid="false"
     inkscape:zoom="1.3111111"
     inkscape:cx="16.779661"
     inkscape:cy="90"
     inkscape:window-x="0"
     inkscape:window-y="0"
     inkscape:window-maximized="0"
     inkscape:current-layer="Layer_1" /><rect
     x="35"
     y="-45"
     width="180"
     height="180"
     id="rect3"
     style="fill:none" /><g
     id="g5"
     transform="translate(-30,-30)"><g
       id="g7"><circle
         cx="125"
         cy="104.861"
         r="57.5"
         id="circle9"
         style="fill:#ffffff" /><circle
         cx="125.001"
         cy="105.001"
         r="51.150002"
         id="circle11"
         style="fill:#de5833" /><g
         id="g13"><g
           id="g15"><g
             id="g17"><g
               id="g19"><g
                 id="g21"><g
                   id="g23"><g
                     id="g25"><g
                       id="g27"><g
                         id="g29"><g
                           id="g31"><g
                             id="g33"><g
                               id="g35"><g
                                 id="g37"><g
                                   id="g39"><g
                                   id="g41"><g
                                   id="g43"><g
                                   id="g45"><defs
                                   id="defs47"><path
                                   id="SVGID_1_"
                                   d="m 176.354,104.859 c 0,28.316 -23.035,51.354 -51.354,51.354 -28.312,0 -51.348,-23.039 -51.348,-51.354 0,-28.313 23.036,-51.349 51.348,-51.349 28.316,0 51.354,23.036 51.354,51.349 z"
                                   inkscape:connector-curvature="0" /></defs><clipPath
                                   id="SVGID_2_"><use
                                   xlink:href="#SVGID_1_"
                                   overflow="visible"
                                   id="use51"
                                   style="overflow:visible"
                                   x="0"
                                   y="0"
                                   width="100%"
                                   height="100%" /></clipPath><g
                                   clip-path="url(#SVGID_2_)"
                                   id="g53"><path
                                   d="m 145.962,181.193 c -1.801,-8.285 -12.262,-27.039 -16.229,-34.969 -3.965,-7.937 -7.938,-19.11 -6.128,-26.322 0.328,-1.312 -3.436,-11.309 -2.354,-12.016 8.416,-5.489 10.632,0.6 14.002,-1.861 1.732,-1.273 4.09,1.047 4.688,-1.06 2.158,-7.567 -3.006,-20.76 -8.771,-26.526 -1.885,-1.879 -4.771,-3.06 -8.029,-3.687 -1.255,-1.713 -3.275,-3.36 -6.139,-4.879 -3.188,-1.697 -10.121,-3.938 -13.717,-4.535 -2.492,-0.41 -3.055,0.287 -4.119,0.461 0.992,0.088 5.699,2.414 6.615,2.549 -0.916,0.619 -3.607,-0.028 -5.324,0.742 -0.865,0.392 -1.512,1.877 -1.506,2.58 4.91,-0.496 12.574,-0.016 17.1,2 -3.602,0.41 -9.08,0.867 -11.436,2.105 -6.848,3.608 -9.873,12.035 -8.07,22.133 1.805,10.075 9.738,46.85 12.263,59.129 2.524,12.264 -5.408,20.189 -10.455,22.354 l 5.407,0.363 -1.801,3.967 c 6.484,0.719 13.695,-1.438 13.695,-1.438 -1.438,3.965 -11.176,5.412 -11.176,5.412 0,0 4.69,1.438 12.258,-1.447 7.578,-2.883 12.263,-4.688 12.263,-4.688 l 3.604,9.373 6.854,-6.851 2.885,7.216 c 0.012,-0.003 5.424,-1.81 3.62,-10.105 z"
                                   id="path55"
                                   inkscape:connector-curvature="0"
                                   style="fill:#d5d7d8" /><path
                                   d="m 148.141,179.512 c -1.795,-8.289 -12.257,-27.043 -16.229,-34.979 -3.971,-7.936 -7.935,-19.112 -6.13,-26.321 0.335,-1.309 0.341,-6.668 1.429,-7.379 8.411,-5.494 7.812,-0.184 11.188,-2.646 1.74,-1.271 3.134,-2.805 3.738,-4.911 2.163,-7.572 -3.007,-20.76 -8.772,-26.529 -1.88,-1.879 -4.769,-3.062 -8.021,-3.686 -1.252,-1.718 -3.271,-3.361 -6.13,-4.882 -5.391,-2.862 -12.073,-4.006 -18.266,-2.883 0.99,0.09 3.256,2.138 4.168,2.273 -1.381,0.936 -5.053,0.815 -5.029,2.896 4.916,-0.492 10.304,0.285 14.834,2.297 -3.602,0.41 -6.955,1.3 -9.311,2.543 -6.854,3.603 -8.656,10.812 -6.854,20.914 1.808,10.097 9.742,46.873 12.256,59.126 2.527,12.26 -5.401,20.188 -10.448,22.354 l 5.407,0.359 -1.801,3.973 c 6.484,0.721 13.695,-1.439 13.695,-1.439 -1.438,3.979 -11.176,5.406 -11.176,5.406 0,0 4.686,1.439 12.258,-1.445 7.583,-2.883 12.269,-4.688 12.269,-4.688 l 3.604,9.373 6.853,-6.854 2.892,7.215 c -0.021,0.008 5.383,-1.796 3.576,-10.087 z"
                                   id="path57"
                                   inkscape:connector-curvature="0"
                                   style="fill:#ffffff" /><path
                                   d="m 106.69,96.726 c 0,-2.093 1.692,-3.787 3.789,-3.787 2.09,0 3.785,1.694 3.785,3.787 0,2.094 -1.695,3.786 -3.785,3.786 -2.096,0.001 -3.789,-1.692 -3.789,-3.786 z"
                                   id="path59"
                                   inkscape:connector-curvature="0"
                                   style="fill:#2d4f8e" /><path
                                   d="m 111.176,95.464 c 0,-0.545 0.441,-0.983 0.98,-0.983 0.543,0 0.984,0.438 0.984,0.983 0,0.543 -0.441,0.984 -0.984,0.984 -0.538,0.001 -0.98,-0.441 -0.98,-0.984 z"
                                   id="path61"
                                   inkscape:connector-curvature="0"
                                   style="fill:#ffffff" /><path
                                   d="m 132.536,94.48 c 0,-1.793 1.461,-3.25 3.252,-3.25 1.801,0 3.256,1.457 3.256,3.25 0,1.801 -1.455,3.258 -3.256,3.258 -1.791,0 -3.252,-1.457 -3.252,-3.258 z"
                                   id="path63"
                                   inkscape:connector-curvature="0"
                                   style="fill:#2d4f8e" /><path
                                   d="m 136.395,93.398 c 0,-0.463 0.379,-0.843 0.838,-0.843 0.479,0 0.85,0.38 0.85,0.843 0,0.469 -0.367,0.842 -0.85,0.842 -0.462,0 -0.838,-0.373 -0.838,-0.842 z"
                                   id="path65"
                                   inkscape:connector-curvature="0"
                                   style="fill:#ffffff" /><linearGradient
                                   id="SVGID_3_"
                                   gradientUnits="userSpaceOnUse"
                                   x1="3380.9873"
                                   y1="3974.0146"
                                   x2="3389.5566"
                                   y2="3974.0146"
                                   gradientTransform="translate(-3278,-3887)"><stop
                                   offset="0.0056"
                                   style="stop-color:#6176B9"
                                   id="stop68" /><stop
                                   offset="0.691"
                                   style="stop-color:#394A9F"
                                   id="stop70" /></linearGradient><path
                                   d="m 111.556,85.753 c 0,0 -2.854,-1.291 -5.63,0.453 -2.77,1.742 -2.668,3.523 -2.668,3.523 0,0 -1.473,-3.283 2.453,-4.892 3.931,-1.609 5.845,0.916 5.845,0.916 z"
                                   id="path72"
                                   inkscape:connector-curvature="0"
                                   style="fill:url(#SVGID_3_)" /><linearGradient
                                   id="SVGID_4_"
                                   gradientUnits="userSpaceOnUse"
                                   x1="3407.9414"
                                   y1="3971.4062"
                                   x2="3415.7471"
                                   y2="3971.4062"
                                   gradientTransform="translate(-3278,-3887)"><stop
                                   offset="0.0056"
                                   style="stop-color:#6176B9"
                                   id="stop75" /><stop
                                   offset="0.691"
                                   style="stop-color:#394A9F"
                                   id="stop77" /></linearGradient><path
                                   d="m 137.747,85.493 c 0,0 -2.052,-1.172 -3.644,-1.152 -3.271,0.043 -4.162,1.488 -4.162,1.488 0,0 0.55,-3.445 4.729,-2.754 2.271,0.377 3.077,2.418 3.077,2.418 z"
                                   id="path79"
                                   inkscape:connector-curvature="0"
                                   style="fill:url(#SVGID_4_)" /></g></g></g></g></g></g></g></g></g></g></g></g></g></g></g></g><path
             d="m 122.069,111.33 c 0.379,-2.291 6.299,-6.625 10.49,-6.887 4.201,-0.265 5.51,-0.205 9.01,-1.043 3.515,-0.838 12.535,-3.088 15.033,-4.242 2.504,-1.156 13.104,0.572 5.631,4.738 -3.229,1.809 -11.938,5.131 -18.172,6.987 -6.219,1.861 -9.99,-1.775 -12.06,1.281 -1.646,2.432 -0.334,5.762 7.099,6.453 10.037,0.93 19.66,-4.521 20.719,-1.625 1.064,2.895 -8.625,6.508 -14.521,6.623 -5.896,0.111 -17.771,-3.896 -19.559,-5.137 -1.785,-1.238 -4.164,-4.13 -3.67,-7.148 z"
             id="path81"
             inkscape:connector-curvature="0"
             style="fill:#fdd20a" /></g><g
           id="g83"><path
             d="m 127.012,141.229 c 0,0 -14.103,-7.521 -14.333,-4.471 -0.237,3.057 0,15.51 1.644,16.449 1.646,0.938 13.394,-6.105 13.394,-6.105 l -0.705,-5.873 z"
             id="path85"
             inkscape:connector-curvature="0"
             style="fill:#65bc46" /><path
             d="m 132.413,140.756 c 0,0 9.635,-7.285 11.754,-6.816 2.11,0.479 2.582,15.513 0.701,16.229 -1.882,0.69 -12.908,-3.813 -12.908,-3.813 l 0.453,-5.6 z"
             id="path87"
             inkscape:connector-curvature="0"
             style="fill:#65bc46" /><path
             d="m 123.597,142.025 c 0,4.932 -0.707,7.049 1.41,7.521 2.107,0.474 6.104,0 7.519,-0.938 1.41,-0.938 0.231,-7.279 -0.23,-8.466 -0.482,-1.173 -8.699,-0.232 -8.699,1.883 z"
             id="path89"
             inkscape:connector-curvature="0"
             style="fill:#43a244" /><path
             d="m 124.493,140.93 c 0,4.935 -0.707,7.049 1.407,7.521 2.105,0.479 6.104,0 7.521,-0.938 1.41,-0.939 0.229,-7.278 -0.233,-8.467 -0.476,-1.175 -8.695,-0.23 -8.695,1.884 z"
             id="path91"
             inkscape:connector-curvature="0"
             style="fill:#65bc46" /></g></g><g
         id="g93"><path
           d="m 125,165 c -33.084,0 -60,-26.916 -60,-60 0,-33.084 26.916,-60 60,-60 33.084,0 60,26.916 60,60 0,33.084 -26.916,60 -60,60 z m 0,-115 c -30.327,0 -55,24.673 -55,55 0,30.327 24.673,55 55,55 30.327,0 55,-24.673 55,-55 0,-30.327 -24.673,-55 -55,-55 z"
           id="path95"
           inkscape:connector-curvature="0"
           style="fill:#de5833" /></g></g></g></svg>